<?xml version="1.0" encoding="UTF-8" standalone="no"?>
<!-- Created with Inkscape (http://www.inkscape.org/) -->

<svg
   version="1.1"
   id="svg1"
   width="619.22888"
   height="428.02689"
   viewBox="0 0 619.22886 428.02687"
   sodipodi:docname="hard_constraints.svg"
   inkscape:version="1.3.2 (091e20ef0f, 2023-11-25, custom)"
   xmlns:inkscape="http://www.inkscape.org/namespaces/inkscape"
   xmlns:sodipodi="http://sodipodi.sourceforge.net/DTD/sodipodi-0.dtd"
   xmlns="http://www.w3.org/2000/svg"
   xmlns:svg="http://www.w3.org/2000/svg">
  <sodipodi:namedview
     id="namedview1"
     pagecolor="#ffffff"
     bordercolor="#000000"
     borderopacity="0.25"
     inkscape:showpageshadow="2"
     inkscape:pageopacity="0.0"
     inkscape:pagecheckerboard="0"
     inkscape:deskcolor="#d1d1d1"
     showgrid="false"
     inkscape:zoom="0.76971523"
     inkscape:cx="287.76877"
     inkscape:cy="250.09249"
     inkscape:window-width="1526"
     inkscape:window-height="833"
     inkscape:window-x="0"
     inkscape:window-y="0"
     inkscape:window-maximized="1"
     inkscape:current-layer="g7">
    <inkscape:page
       x="0"
       y="0"
       inkscape:label="1"
       id="page1"
       width="619.22888"
       height="428.02686"
       margin="0"
       bleed="0"
       inkscape:export-filename="hard_constraints.pdf"
       inkscape:export-xdpi="96"
       inkscape:export-ydpi="96" />
  </sodipodi:namedview>
  <defs
     id="defs1">
    <rect
       x="573.29425"
       y="399.03946"
       width="83.188995"
       height="29.196173"
       id="rect38" />
    <marker
       style="overflow:visible"
       id="marker36"
       refX="0"
       refY="0"
       orient="auto-start-reverse"
       inkscape:stockid="Concave triangle arrow"
       markerWidth="2"
       markerHeight="2"
       viewBox="0 0 1 1"
       inkscape:isstock="true"
       inkscape:collect="always"
       preserveAspectRatio="xMidYMid"
       markerUnits="strokeWidth">
      <path
         transform="scale(0.7)"
         d="M -2,-4 9,0 -2,4 c 2,-2.33 2,-5.66 0,-8 z"
         style="fill:context-stroke;fill-rule:evenodd;stroke:none"
         id="path36" />
    </marker>
    <marker
       style="overflow:visible"
       id="ConcaveTriangle"
       refX="0"
       refY="0"
       orient="auto-start-reverse"
       inkscape:stockid="Concave triangle arrow"
       markerWidth="2"
       markerHeight="2"
       viewBox="0 0 1 1"
       inkscape:isstock="true"
       inkscape:collect="always"
       preserveAspectRatio="xMidYMid">
      <path
         transform="scale(0.7)"
         d="M -2,-4 9,0 -2,4 c 2,-2.33 2,-5.66 0,-8 z"
         style="fill:context-stroke;fill-rule:evenodd;stroke:none"
         id="path34" />
    </marker>
    <clipPath
       clipPathUnits="userSpaceOnUse"
       id="clipPath4">
      <path
         d="M -1021,-463 H 1794 V 1233 H -1021 Z"
         transform="translate(-3.4091009e-4,-2.5000006e-4)"
         id="path4" />
    </clipPath>
    <clipPath
       clipPathUnits="userSpaceOnUse"
       id="clipPath7">
      <path
         d="M -1021,-463 H 1794 V 1233 H -1021 Z"
         transform="translate(2.7273007e-4,-2.5000006e-4)"
         id="path7" />
    </clipPath>
    <clipPath
       clipPathUnits="userSpaceOnUse"
       id="clipPath24">
      <path
         d="m 72,65.04 h 446.4 v 297.6 H 72 Z"
         id="path24" />
    </clipPath>
    <clipPath
       clipPathUnits="userSpaceOnUse"
       id="clipPath26">
      <path
         d="m 72,65.04 h 446.4 v 297.6 H 72 Z"
         id="path26" />
    </clipPath>
    <clipPath
       clipPathUnits="userSpaceOnUse"
       id="clipPath28">
      <path
         d="m 72,65.04 h 446.4 v 297.6 H 72 Z"
         id="path28" />
    </clipPath>
  </defs>
  <g
     id="g7"
     inkscape:groupmode="layer"
     inkscape:label="1"
     transform="translate(-96.011294,-80.005447)">
    <path
       id="path23"
       d="M 92.290909,349.11273 362.83636,78.567273 h 135.27273 v 0"
       style="fill:none;stroke:#0000ff;stroke-width:1.5;stroke-linecap:square;stroke-linejoin:round;stroke-miterlimit:10;stroke-dasharray:none;stroke-opacity:1"
       transform="matrix(1.3333333,0,0,-1.3333333,0,576)"
       clip-path="url(#clipPath24)" />
    <path
       style="fill:#d40000;stroke:#800080;stroke-width:0.933333;stroke-dasharray:none;marker-end:url(#ConcaveTriangle)"
       d="M 96.011294,471.37419 H 691.16196"
       id="path32" />
    <path
       style="fill:#d40000;stroke:#800080;stroke-width:0.933333;stroke-miterlimit:4;stroke-dasharray:none;marker-start:url(#marker36)"
       d="M 302.97039,92.736592 V 489.92528"
       id="path33" />
    <text
       xml:space="preserve"
       transform="translate(96,92.480011)"
       id="text38"
       style="white-space:pre;shape-inside:url(#rect38);display:inline;fill:#800080;fill-opacity:1;stroke:none;stroke-width:0.377953;stroke-miterlimit:4;stroke-dasharray:none" />
    <text
       xml:space="preserve"
       style="fill:#ffffff;stroke:#000000;stroke-width:1.88976"
       x="327.59619"
       y="95.068703"
       id="text2"><tspan
         sodipodi:role="line"
         id="tspan2"
         x="327.59619"
         y="95.068703" /></text>
    <g
       inkscape:label=""
       transform="translate(336.12331,80.005454)"
       id="g1">
      <g
         fill="#000000"
         fill-opacity="1"
         id="g9"
         transform="matrix(1.33333,0,0,1.33333,-5.09483,-2.6645)">
        <g
           id="use8"
           transform="translate(1.993,14.889)">
          <path
             d="M 4.046875,4.28125 V 3.6875 h -1.625 v -15.984375 h 1.625 v -0.59375 H 1.828125 V 4.28125 Z m 0,0"
             id="path15" />
        </g>
      </g>
      <g
         fill="#000000"
         fill-opacity="1"
         id="g10"
         transform="matrix(1.33333,0,0,1.33333,-5.09483,-2.6645)">
        <g
           id="use9"
           transform="translate(6.29,14.889)">
          <path
             d="m 15.640625,-10.5 c 0.15625,-0.59375 0.1875,-0.765625 1.40625,-0.765625 0.328125,0 0.484375,0 0.484375,-0.328125 0,-0.171875 -0.125,-0.171875 -0.453125,-0.171875 h -2.0625 c -0.4375,0 -0.453125,0.01563 -0.640625,0.296875 L 8.09375,-1.53125 6.796875,-11.375 C 6.75,-11.765625 6.734375,-11.765625 6.28125,-11.765625 h -2.125 c -0.328125,0 -0.484375,0 -0.484375,0.328125 0,0.171875 0.15625,0.171875 0.40625,0.171875 1.046875,0 1.046875,0.140625 1.046875,0.328125 0,0.03125 0,0.140625 -0.0625,0.40625 L 2.859375,-1.75 C 2.65625,-0.9375 2.25,-0.546875 1.109375,-0.5 1.046875,-0.5 0.84375,-0.484375 0.84375,-0.1875 0.84375,0 1,0 1.0625,0 1.40625,0 2.296875,-0.03125 2.640625,-0.03125 H 3.46875 C 3.703125,-0.03125 4,0 4.234375,0 c 0.125,0 0.3125,0 0.3125,-0.328125 C 4.546875,-0.484375 4.375,-0.5 4.3125,-0.5 3.734375,-0.515625 3.1875,-0.625 3.1875,-1.234375 c 0,-0.171875 0,-0.1875 0.0625,-0.4375 l 2.375,-9.484375 h 0.015625 l 1.4375,10.6875 C 7.125,-0.046875 7.140625,0 7.296875,0 7.484375,0 7.578125,-0.140625 7.65625,-0.296875 L 14.578125,-11.25 h 0.03125 l -2.5,9.96875 c -0.15625,0.609375 -0.1875,0.78125 -1.40625,0.78125 -0.3125,0 -0.5,0 -0.5,0.3125 C 10.203125,0 10.359375,0 10.46875,0 c 0.296875,0 0.640625,-0.03125 0.9375,-0.03125 H 13.4375 C 13.71875,-0.03125 14.078125,0 14.375,0 14.515625,0 14.703125,0 14.703125,-0.328125 14.703125,-0.5 14.546875,-0.5 14.296875,-0.5 c -1.0625,0 -1.0625,-0.140625 -1.0625,-0.3125 0,-0.015625 0,-0.140625 0.04687,-0.265625 z m 0,0"
             id="path16" />
        </g>
      </g>
      <g
         fill="#000000"
         fill-opacity="1"
         id="g11"
         transform="matrix(1.33333,0,0,1.33333,-5.09483,-2.6645)">
        <g
           id="use10"
           transform="translate(28.222,14.889)">
          <path
             d="m 11.34375,-3.953125 c 0.296875,0 0.609375,0 0.609375,-0.359375 0,-0.34375 -0.3125,-0.34375 -0.609375,-0.34375 h -9.3125 c -0.296875,0 -0.609375,0 -0.609375,0.34375 0,0.359375 0.3125,0.359375 0.609375,0.359375 z m 0,0"
             id="path17" />
        </g>
      </g>
      <g
         fill="#000000"
         fill-opacity="1"
         id="g12"
         transform="matrix(1.33333,0,0,1.33333,-5.09483,-2.6645)">
        <g
           id="use11"
           transform="translate(45.437,14.889)">
          <path
             d="M 2.703125,-1.28125 C 2.546875,-0.671875 2.515625,-0.5 1.3125,-0.5 c -0.328125,0 -0.5,0 -0.5,0.3125 C 0.8125,0 0.90625,0 1.25,0 h 5.46875 c 3.46875,0 6.859375,-3.59375 6.859375,-7.4375 0,-2.484375 -1.46875,-4.328125 -3.9375,-4.328125 h -5.53125 c -0.328125,0 -0.46875,0 -0.46875,0.328125 0,0.171875 0.140625,0.171875 0.40625,0.171875 1.046875,0 1.046875,0.140625 1.046875,0.328125 0,0.03125 0,0.140625 -0.0625,0.40625 z m 3.640625,-9.3125 c 0.140625,-0.640625 0.21875,-0.671875 0.890625,-0.671875 H 9.125 c 1.625,0 3.09375,0.875 3.09375,3.265625 0,0.859375 -0.34375,3.84375 -2.015625,5.75 C 9.734375,-1.6875 8.421875,-0.5 6.4375,-0.5 H 4.484375 c -0.25,0 -0.28125,0 -0.390625,-0.015625 -0.1875,-0.015625 -0.203125,-0.046875 -0.203125,-0.1875 0,-0.125 0.03125,-0.234375 0.0625,-0.375 z m 0,0"
             id="path18" />
        </g>
      </g>
      <g
         fill="#000000"
         fill-opacity="1"
         id="g13"
         transform="matrix(1.33333,0,0,1.33333,-5.09483,-2.6645)">
        <g
           id="use12"
           transform="translate(59.432999,17.471001)">
          <path
             d="m 4.359375,-4.5625 1.96875,-1.890625 C 6.40625,-6.546875 6.984375,-7.09375 7.875,-7.109375 v -0.34375 c -0.28125,0.03125 -0.640625,0.03125 -0.921875,0.03125 -0.40625,0 -1.015625,0 -1.390625,-0.03125 v 0.34375 c 0.4375,0.015625 0.5,0.265625 0.5,0.359375 0,0.171875 -0.109375,0.28125 -0.1875,0.359375 L 2.453125,-3.125 v -3.46875 c 0,-0.390625 0.015625,-0.515625 0.859375,-0.515625 h 0.265625 v -0.34375 c -0.375,0.03125 -1.1875,0.03125 -1.609375,0.03125 -0.40625,0 -1.234375,0 -1.609375,-0.03125 v 0.34375 H 0.625 c 0.84375,0 0.859375,0.125 0.859375,0.515625 v 5.75 c 0,0.390625 -0.015625,0.5 -0.859375,0.5 H 0.359375 V 0 c 0.375,-0.03125 1.1875,-0.03125 1.609375,-0.03125 0.40625,0 1.234375,0 1.609375,0.03125 V -0.34375 H 3.3125 c -0.84375,0 -0.859375,-0.109375 -0.859375,-0.5 v -1.921875 l 1.265625,-1.1875 1.96875,2.921875 c 0.078125,0.09375 0.171875,0.234375 0.171875,0.359375 0,0.328125 -0.421875,0.328125 -0.640625,0.328125 V 0 C 5.59375,-0.03125 6.359375,-0.03125 6.765625,-0.03125 7.15625,-0.03125 7.5625,-0.015625 8.03125,0 V -0.34375 C 7.4375,-0.34375 7.203125,-0.375 6.875,-0.859375 Z m 0,0"
             id="path19" />
        </g>
        <g
           id="use13"
           transform="translate(67.918098,17.471001)">
          <path
             d="M 6.34375,-2.8125 H 6.078125 c -0.125,1.109375 -0.28125,2.46875 -2.203125,2.46875 H 2.984375 c -0.515625,0 -0.53125,-0.078125 -0.53125,-0.4375 v -5.8125 c 0,-0.359375 0,-0.515625 1.03125,-0.515625 H 3.84375 v -0.34375 c -0.390625,0.03125 -1.375,0.03125 -1.828125,0.03125 -0.421875,0 -1.28125,0 -1.65625,-0.03125 v 0.34375 H 0.625 c 0.84375,0 0.859375,0.125 0.859375,0.515625 v 5.75 c 0,0.390625 -0.015625,0.5 -0.859375,0.5 H 0.359375 V 0 h 5.6875 z m 0,0"
             id="path20" />
        </g>
      </g>
      <g
         fill="#000000"
         fill-opacity="1"
         id="g14"
         transform="matrix(1.33333,0,0,1.33333,-5.09483,-2.6645)">
        <g
           id="use14"
           transform="translate(75.234001,14.889)">
          <path
             d="M 2.46875,-12.890625 H 0.234375 v 0.59375 h 1.625 V 3.6875 h -1.625 V 4.28125 H 2.46875 Z m 0,0"
             id="path21" />
        </g>
      </g>
      <g
         fill="#000000"
         fill-opacity="1"
         id="g15"
         transform="matrix(1.33333,0,0,1.33333,-5.09483,-2.6645)">
        <g
           id="use15"
           transform="translate(79.531998,8.6420002)">
          <path
             d="M 4.453125,-2.515625 H 7.5 c 0.15625,0 0.359375,0 0.359375,-0.203125 C 7.859375,-2.9375 7.65625,-2.9375 7.5,-2.9375 H 4.453125 V -6 c 0,-0.15625 0,-0.359375 -0.203125,-0.359375 -0.21875,0 -0.21875,0.203125 -0.21875,0.359375 v 3.0625 h -3.0625 c -0.15625,0 -0.359375,0 -0.359375,0.21875 0,0.203125 0.203125,0.203125 0.359375,0.203125 h 3.0625 v 3.0625 c 0,0.15625 0,0.359375 0.21875,0.359375 0.203125,0 0.203125,-0.203125 0.203125,-0.359375 z m 0,0"
             id="path22" />
        </g>
      </g>
    </g>
    <g
       inkscape:label=""
       transform="translate(677.89186,488.90222)"
       id="g2">
      <g
         fill="#000000"
         fill-opacity="1"
         id="g4"
         transform="matrix(1.33333,0,0,1.33333,-3.74067,-2.65383)">
        <g
           id="use3"
           transform="translate(1.993,13.756)">
          <path
             d="M 2.703125,-1.28125 C 2.546875,-0.671875 2.515625,-0.5 1.3125,-0.5 c -0.328125,0 -0.5,0 -0.5,0.3125 C 0.8125,0 0.90625,0 1.25,0 h 5.46875 c 3.46875,0 6.859375,-3.59375 6.859375,-7.4375 0,-2.484375 -1.46875,-4.328125 -3.9375,-4.328125 h -5.53125 c -0.328125,0 -0.46875,0 -0.46875,0.328125 0,0.171875 0.140625,0.171875 0.40625,0.171875 1.046875,0 1.046875,0.140625 1.046875,0.328125 0,0.03125 0,0.140625 -0.0625,0.40625 z m 3.640625,-9.3125 c 0.140625,-0.640625 0.21875,-0.671875 0.890625,-0.671875 H 9.125 c 1.625,0 3.09375,0.875 3.09375,3.265625 0,0.859375 -0.34375,3.84375 -2.015625,5.75 C 9.734375,-1.6875 8.421875,-0.5 6.4375,-0.5 H 4.484375 c -0.25,0 -0.28125,0 -0.390625,-0.015625 -0.1875,-0.015625 -0.203125,-0.046875 -0.203125,-0.1875 0,-0.125 0.03125,-0.234375 0.0625,-0.375 z m 0,0"
             id="path5" />
        </g>
      </g>
      <g
         fill="#000000"
         fill-opacity="1"
         id="g5"
         transform="matrix(1.33333,0,0,1.33333,-3.74067,-2.65383)">
        <g
           id="use4"
           transform="translate(15.988,16.337999)">
          <path
             d="m 4.359375,-4.5625 1.96875,-1.890625 C 6.40625,-6.546875 6.984375,-7.09375 7.875,-7.109375 v -0.34375 c -0.28125,0.03125 -0.640625,0.03125 -0.921875,0.03125 -0.40625,0 -1.015625,0 -1.390625,-0.03125 v 0.34375 c 0.4375,0.015625 0.5,0.265625 0.5,0.359375 0,0.171875 -0.109375,0.28125 -0.1875,0.359375 L 2.453125,-3.125 v -3.46875 c 0,-0.390625 0.015625,-0.515625 0.859375,-0.515625 h 0.265625 v -0.34375 c -0.375,0.03125 -1.1875,0.03125 -1.609375,0.03125 -0.40625,0 -1.234375,0 -1.609375,-0.03125 v 0.34375 H 0.625 c 0.84375,0 0.859375,0.125 0.859375,0.515625 v 5.75 c 0,0.390625 -0.015625,0.5 -0.859375,0.5 H 0.359375 V 0 c 0.375,-0.03125 1.1875,-0.03125 1.609375,-0.03125 0.40625,0 1.234375,0 1.609375,0.03125 V -0.34375 H 3.3125 c -0.84375,0 -0.859375,-0.109375 -0.859375,-0.5 v -1.921875 l 1.265625,-1.1875 1.96875,2.921875 c 0.078125,0.09375 0.171875,0.234375 0.171875,0.359375 0,0.328125 -0.421875,0.328125 -0.640625,0.328125 V 0 C 5.59375,-0.03125 6.359375,-0.03125 6.765625,-0.03125 7.15625,-0.03125 7.5625,-0.015625 8.03125,0 V -0.34375 C 7.4375,-0.34375 7.203125,-0.375 6.875,-0.859375 Z m 0,0"
             id="path6" />
        </g>
        <g
           id="use5"
           transform="translate(24.473099,16.337999)">
          <path
             d="M 6.34375,-2.8125 H 6.078125 c -0.125,1.109375 -0.28125,2.46875 -2.203125,2.46875 H 2.984375 c -0.515625,0 -0.53125,-0.078125 -0.53125,-0.4375 v -5.8125 c 0,-0.359375 0,-0.515625 1.03125,-0.515625 H 3.84375 v -0.34375 c -0.390625,0.03125 -1.375,0.03125 -1.828125,0.03125 -0.421875,0 -1.28125,0 -1.65625,-0.03125 v 0.34375 H 0.625 c 0.84375,0 0.859375,0.125 0.859375,0.515625 v 5.75 c 0,0.390625 -0.015625,0.5 -0.859375,0.5 H 0.359375 V 0 h 5.6875 z m 0,0"
             id="path2" />
        </g>
      </g>
    </g>
    <g
       inkscape:label=""
       transform="translate(473.69703,491.59447)"
       id="g6">
      <g
         fill="#000000"
         fill-opacity="1"
         id="g3"
         transform="matrix(1.33333,0,0,1.33333,-3.78233,-2.65383)">
        <g
           id="use1"
           transform="translate(1.993,13.756)">
          <path
             d="m 15.640625,-10.5 c 0.15625,-0.59375 0.1875,-0.765625 1.40625,-0.765625 0.328125,0 0.484375,0 0.484375,-0.328125 0,-0.171875 -0.125,-0.171875 -0.453125,-0.171875 h -2.0625 c -0.4375,0 -0.453125,0.01563 -0.640625,0.296875 L 8.09375,-1.53125 6.796875,-11.375 C 6.75,-11.765625 6.734375,-11.765625 6.28125,-11.765625 h -2.125 c -0.328125,0 -0.484375,0 -0.484375,0.328125 0,0.171875 0.15625,0.171875 0.40625,0.171875 1.046875,0 1.046875,0.140625 1.046875,0.328125 0,0.03125 0,0.140625 -0.0625,0.40625 L 2.859375,-1.75 C 2.65625,-0.9375 2.25,-0.546875 1.109375,-0.5 1.046875,-0.5 0.84375,-0.484375 0.84375,-0.1875 0.84375,0 1,0 1.0625,0 1.40625,0 2.296875,-0.03125 2.640625,-0.03125 H 3.46875 C 3.703125,-0.03125 4,0 4.234375,0 c 0.125,0 0.3125,0 0.3125,-0.328125 C 4.546875,-0.484375 4.375,-0.5 4.3125,-0.5 3.734375,-0.515625 3.1875,-0.625 3.1875,-1.234375 c 0,-0.171875 0,-0.1875 0.0625,-0.4375 l 2.375,-9.484375 h 0.015625 l 1.4375,10.6875 C 7.125,-0.046875 7.140625,0 7.296875,0 7.484375,0 7.578125,-0.140625 7.65625,-0.296875 L 14.578125,-11.25 h 0.03125 l -2.5,9.96875 c -0.15625,0.609375 -0.1875,0.78125 -1.40625,0.78125 -0.3125,0 -0.5,0 -0.5,0.3125 C 10.203125,0 10.359375,0 10.46875,0 c 0.296875,0 0.640625,-0.03125 0.9375,-0.03125 H 13.4375 C 13.71875,-0.03125 14.078125,0 14.375,0 14.515625,0 14.703125,0 14.703125,-0.328125 14.703125,-0.5 14.546875,-0.5 14.296875,-0.5 c -1.0625,0 -1.0625,-0.140625 -1.0625,-0.3125 0,-0.015625 0,-0.140625 0.04687,-0.265625 z m 0,0"
             id="path3" />
        </g>
      </g>
    </g>
  </g>
</svg>
