<?xml version="1.0" encoding="UTF-8" standalone="no"?>
<!-- Created with Inkscape (http://www.inkscape.org/) -->

<svg
   version="1.1"
   id="svg1"
   width="625.06439"
   height="438.45239"
   viewBox="0 0 625.06438 438.45237"
   sodipodi:docname="soft_constraints.svg"
   inkscape:version="1.3.2 (091e20ef0f, 2023-11-25, custom)"
   xmlns:inkscape="http://www.inkscape.org/namespaces/inkscape"
   xmlns:sodipodi="http://sodipodi.sourceforge.net/DTD/sodipodi-0.dtd"
   xmlns="http://www.w3.org/2000/svg"
   xmlns:svg="http://www.w3.org/2000/svg">
  <sodipodi:namedview
     id="namedview1"
     pagecolor="#ffffff"
     bordercolor="#000000"
     borderopacity="0.25"
     inkscape:showpageshadow="2"
     inkscape:pageopacity="0.0"
     inkscape:pagecheckerboard="0"
     inkscape:deskcolor="#d1d1d1"
     showgrid="false"
     inkscape:zoom="0.76971523"
     inkscape:cx="487.84276"
     inkscape:cy="199.4244"
     inkscape:window-width="1526"
     inkscape:window-height="833"
     inkscape:window-x="0"
     inkscape:window-y="0"
     inkscape:window-maximized="1"
     inkscape:current-layer="g1">
    <inkscape:page
       x="0"
       y="0"
       inkscape:label="1"
       id="page1"
       width="625.06439"
       height="438.45236"
       margin="0"
       bleed="0"
       inkscape:export-filename="soft_constraints.pdf"
       inkscape:export-xdpi="96"
       inkscape:export-ydpi="96" />
  </sodipodi:namedview>
  <defs
     id="defs1">
    <rect
       x="573.29425"
       y="399.03946"
       width="83.188995"
       height="29.196173"
       id="rect38" />
    <marker
       style="overflow:visible"
       id="marker36"
       refX="0"
       refY="0"
       orient="auto-start-reverse"
       inkscape:stockid="Concave triangle arrow"
       markerWidth="2"
       markerHeight="2"
       viewBox="0 0 1 1"
       inkscape:isstock="true"
       inkscape:collect="always"
       preserveAspectRatio="xMidYMid"
       markerUnits="strokeWidth">
      <path
         transform="scale(0.7)"
         d="M -2,-4 9,0 -2,4 c 2,-2.33 2,-5.66 0,-8 z"
         style="fill:context-stroke;fill-rule:evenodd;stroke:none"
         id="path36" />
    </marker>
    <marker
       style="overflow:visible"
       id="ConcaveTriangle"
       refX="0"
       refY="0"
       orient="auto-start-reverse"
       inkscape:stockid="Concave triangle arrow"
       markerWidth="2"
       markerHeight="2"
       viewBox="0 0 1 1"
       inkscape:isstock="true"
       inkscape:collect="always"
       preserveAspectRatio="xMidYMid">
      <path
         transform="scale(0.7)"
         d="M -2,-4 9,0 -2,4 c 2,-2.33 2,-5.66 0,-8 z"
         style="fill:context-stroke;fill-rule:evenodd;stroke:none"
         id="path34" />
    </marker>
    <clipPath
       clipPathUnits="userSpaceOnUse"
       id="clipPath4">
      <path
         d="M -1021,-463 H 1794 V 1233 H -1021 Z"
         transform="translate(-3.4091009e-4,-2.5000006e-4)"
         id="path4" />
    </clipPath>
    <clipPath
       clipPathUnits="userSpaceOnUse"
       id="clipPath7">
      <path
         d="M -1021,-463 H 1794 V 1233 H -1021 Z"
         transform="translate(2.7273007e-4,-2.5000006e-4)"
         id="path7" />
    </clipPath>
    <clipPath
       clipPathUnits="userSpaceOnUse"
       id="clipPath24">
      <path
         d="m 72,65.04 h 446.4 v 297.6 H 72 Z"
         id="path24" />
    </clipPath>
    <clipPath
       clipPathUnits="userSpaceOnUse"
       id="clipPath26">
      <path
         d="m 72,65.04 h 446.4 v 297.6 H 72 Z"
         id="path26" />
    </clipPath>
    <clipPath
       clipPathUnits="userSpaceOnUse"
       id="clipPath28">
      <path
         d="m 72,65.04 h 446.4 v 297.6 H 72 Z"
         id="path28" />
    </clipPath>
    <clipPath
       clipPathUnits="userSpaceOnUse"
       id="clipPath21">
      <path
         d="M 111.64287,47.52 H 478.75713 V 380.16 H 111.64287 Z"
         id="path21" />
    </clipPath>
  </defs>
  <g
     id="g1"
     inkscape:groupmode="layer"
     inkscape:label="1"
     transform="translate(-96.011294,-73.481212)">
    <path
       style="fill:#d40000;stroke:#800080;stroke-width:0.933333;stroke-dasharray:none;marker-end:url(#ConcaveTriangle)"
       d="M 96.011294,471.37419 H 691.16196"
       id="path32" />
    <path
       style="fill:#d40000;stroke:#800080;stroke-width:0.933333;stroke-miterlimit:4;stroke-dasharray:none;marker-start:url(#marker36)"
       d="M 302.97039,92.736592 V 489.92528"
       id="path33" />
    <text
       xml:space="preserve"
       transform="translate(96,92.480011)"
       id="text38"
       style="white-space:pre;shape-inside:url(#rect38);fill:#800080;fill-opacity:1;stroke:none;stroke-width:0.377953;stroke-miterlimit:4;stroke-dasharray:none" />
    <path
       id="path20"
       d="m 128.32988,365.04 5.01866,-13.33896 5.01865,-12.75058 5.01865,-12.18815 5.01865,-11.65052 5.01865,-11.13662 5.01865,-10.64537 5.01865,-10.1758 5.01865,-9.72695 5.01865,-9.29789 5.01865,-8.88775 5.01865,-8.49571 5.85509,-9.4392 5.85509,-8.95524 5.85509,-8.4961 5.85509,-8.0605 5.85509,-7.64724 5.8551,-7.25516 5.85509,-6.88318 5.85509,-6.53028 5.85509,-6.19547 5.85509,-5.87782 5.85509,-5.57647 5.8551,-5.29055 5.85509,-5.01931 6.69153,-5.42201 6.69154,-5.1055 6.69153,-4.80745 6.69153,-4.5268 6.69154,-4.26255 6.69153,-4.0137 6.69153,-3.7794 7.52798,-3.98876 7.52797,-3.72776 7.52798,-3.48386 7.52797,-3.25591 8.36442,-3.36843 8.36442,-3.12446 8.36441,-2.898144 9.20086,-2.946105 9.20086,-2.712246 10.0373,-2.713873 10.0373,-2.479734 10.87374,-2.445544 10.87374,-2.217817 11.71019,-2.15802 12.54662,-2.073483 12.54663,-1.852336 3.34576,-0.459679 v 0"
       style="fill:none;stroke:#0000ff;stroke-width:1.44301;stroke-linecap:square;stroke-linejoin:round;stroke-miterlimit:10;stroke-dasharray:none;stroke-opacity:1"
       transform="matrix(1.5976216,0,0,-1.2023932,-72.331747,545.70974)"
       clip-path="url(#clipPath21)" />
    <g
       inkscape:label=""
       transform="matrix(0.85413395,0,0,0.85413395,327.45266,73.48122)"
       id="g8">
      <g
         fill="#000000"
         fill-opacity="1"
         id="g13"
         transform="matrix(1.33333,0,0,1.33333,-4.25,-2.34317)">
        <g
           id="use12"
           transform="translate(3.97,9.0229998)">
          <path
             d="m 3.203125,-6.984375 c 0,-0.25 0,-0.28125 -0.25,-0.28125 C 2.28125,-6.5625 1.3125,-6.5625 0.96875,-6.5625 v 0.328125 c 0.21875,0 0.859375,0 1.4375,-0.28125 v 5.65625 c 0,0.390625 -0.046875,0.515625 -1.015625,0.515625 H 1.03125 V 0 c 0.390625,-0.03125 1.328125,-0.03125 1.765625,-0.03125 0.4375,0 1.390625,0 1.765625,0.03125 V -0.34375 H 4.21875 c -0.984375,0 -1.015625,-0.109375 -1.015625,-0.515625 z m 0,0"
             id="path23" />
        </g>
      </g>
      <path
         fill="none"
         stroke-width="0.638"
         stroke-linecap="butt"
         stroke-linejoin="miter"
         stroke="#000000"
         stroke-opacity="1"
         stroke-miterlimit="10"
         d="M 0,9.738719 H 7.019531"
         id="path13"
         transform="scale(1.33333)" />
      <g
         fill="#000000"
         fill-opacity="1"
         id="g14"
         transform="matrix(1.33333,0,0,1.33333,-4.25,-2.34317)">
        <g
           id="use13"
           transform="translate(3.188,21.737)">
          <path
             d="m 5.203125,-2.578125 c 0,-1.703125 -1.015625,-2.25 -1.828125,-2.25 -1.484375,0 -2.921875,1.5625 -2.921875,3.109375 0,1.015625 0.640625,1.84375 1.765625,1.84375 0.6875,0 1.46875,-0.25 2.296875,-0.921875 C 4.65625,-0.21875 5.015625,0.125 5.5,0.125 c 0.578125,0 0.921875,-0.609375 0.921875,-0.78125 0,-0.078125 -0.0625,-0.109375 -0.125,-0.109375 -0.078125,0 -0.109375,0.03125 -0.140625,0.109375 C 5.953125,-0.125 5.5625,-0.125 5.546875,-0.125 c -0.34375,0 -0.34375,-0.84375 -0.34375,-1.109375 0,-0.234375 0,-0.25 0.109375,-0.375 1.03125,-1.296875 1.25,-2.5625 1.25,-2.5625 0,-0.03125 -0.015625,-0.109375 -0.125,-0.109375 -0.109375,0 -0.109375,0.03125 -0.171875,0.21875 -0.1875,0.6875 -0.546875,1.515625 -1.0625,2.171875 z m -0.734375,1.5 C 3.515625,-0.234375 2.671875,-0.125 2.234375,-0.125 1.578125,-0.125 1.25,-0.609375 1.25,-1.3125 c 0,-0.53125 0.28125,-1.703125 0.640625,-2.265625 0.515625,-0.796875 1.09375,-1 1.484375,-1 1.078125,0 1.078125,1.421875 1.078125,2.28125 0,0.40625 0,1.03125 0.015625,1.21875 z m 0,0"
             id="path1" />
        </g>
      </g>
      <g
         fill="#000000"
         fill-opacity="1"
         id="g16"
         transform="matrix(1.33333,0,0,1.33333,-4.25,-2.34317)">
        <g
           id="use14"
           transform="translate(11.402,15.801)">
          <path
             d="m 3.078125,-4 c 0.46875,0 1.640625,-0.03125 2.46875,-0.34375 1.3125,-0.5 1.421875,-1.5 1.421875,-1.796875 0,-0.765625 -0.65625,-1.453125 -1.78125,-1.453125 -1.8125,0 -4.40625,1.640625 -4.40625,4.703125 0,1.8125 1.03125,3.0625 2.59375,3.0625 2.34375,0 3.828125,-1.828125 3.828125,-2.046875 0,-0.109375 -0.109375,-0.1875 -0.171875,-0.1875 -0.0625,0 -0.078125,0.015625 -0.234375,0.171875 -1.09375,1.453125 -2.734375,1.71875 -3.390625,1.71875 -0.984375,0 -1.5,-0.78125 -1.5,-2.046875 0,-0.25 0,-0.671875 0.265625,-1.78125 z M 2.25,-4.34375 C 3,-6.984375 4.625,-7.25 5.1875,-7.25 c 0.75,0 1.265625,0.453125 1.265625,1.109375 0,1.796875 -2.75,1.796875 -3.46875,1.796875 z m 0,0"
             id="path25" />
        </g>
        <g
           id="use15"
           transform="translate(19.21435,15.801)">
          <path
             d="m 8.15625,-7.03125 c -0.546875,0.109375 -0.75,0.515625 -0.75,0.84375 0,0.421875 0.328125,0.5625 0.5625,0.5625 0.515625,0 0.875,-0.453125 0.875,-0.921875 0,-0.71875 -0.8125,-1.046875 -1.546875,-1.046875 -1.046875,0 -1.625,1.03125 -1.78125,1.359375 -0.40625,-1.296875 -1.46875,-1.359375 -1.78125,-1.359375 -1.75,0 -2.6875,2.25 -2.6875,2.640625 0,0.0625 0.078125,0.15625 0.1875,0.15625 0.140625,0 0.171875,-0.109375 0.21875,-0.171875 C 2.03125,-6.890625 3.1875,-7.25 3.6875,-7.25 c 0.765625,0 0.921875,0.71875 0.921875,1.140625 0,0.375 -0.09375,0.765625 -0.296875,1.59375 L 3.71875,-2.15625 c -0.25,1.03125 -0.75,1.984375 -1.671875,1.984375 -0.078125,0 -0.515625,0 -0.875,-0.21875 0.625,-0.125 0.75,-0.640625 0.75,-0.84375 0,-0.34375 -0.25,-0.5625 -0.578125,-0.5625 -0.40625,0 -0.859375,0.375 -0.859375,0.921875 0,0.71875 0.8125,1.046875 1.546875,1.046875 0.828125,0 1.40625,-0.65625 1.78125,-1.359375 0.265625,1.015625 1.125,1.359375 1.765625,1.359375 1.75,0 2.6875,-2.25 2.6875,-2.640625 0,-0.078125 -0.0625,-0.15625 -0.171875,-0.15625 -0.15625,0 -0.171875,0.09375 -0.21875,0.234375 -0.46875,1.515625 -1.46875,2.21875 -2.25,2.21875 -0.59375,0 -0.921875,-0.453125 -0.921875,-1.15625 0,-0.375 0.0625,-0.65625 0.34375,-1.78125 l 0.59375,-2.34375 C 5.90625,-6.484375 6.484375,-7.25 7.28125,-7.25 c 0.03125,0 0.515625,0 0.875,0.21875 z m 0,0"
             id="path2" />
        </g>
        <g
           id="use16"
           transform="translate(28.792997,15.801)">
          <path
             d="M 0.734375,2.1875 C 0.625,2.703125 0.546875,2.84375 -0.15625,2.84375 c -0.203125,0 -0.375,0 -0.375,0.328125 0,0.03125 0.015625,0.171875 0.203125,0.171875 0.21875,0 0.46875,-0.03125 0.6875,-0.03125 h 0.75 c 0.359375,0 1.234375,0.03125 1.59375,0.03125 0.109375,0 0.3125,0 0.3125,-0.3125 0,-0.1875 -0.125,-0.1875 -0.421875,-0.1875 C 1.8125,2.84375 1.75,2.71875 1.75,2.578125 1.75,2.375 2.53125,-0.578125 2.640625,-0.984375 2.828125,-0.5 3.28125,0.171875 4.1875,0.171875 c 1.9375,0 4.046875,-2.53125 4.046875,-5.0625 0,-1.578125 -0.90625,-2.703125 -2.1875,-2.703125 -1.109375,0 -2.03125,1.0625 -2.21875,1.3125 -0.140625,-0.859375 -0.8125,-1.3125 -1.5,-1.3125 -0.5,0 -0.90625,0.234375 -1.21875,0.890625 -0.3125,0.625 -0.5625,1.671875 -0.5625,1.75 0,0.0625 0.078125,0.15625 0.1875,0.15625 C 0.875,-4.796875 0.890625,-4.828125 1,-5.21875 1.25,-6.234375 1.578125,-7.25 2.265625,-7.25 c 0.40625,0 0.546875,0.28125 0.546875,0.796875 0,0.40625 -0.0625,0.578125 -0.125,0.890625 z M 3.71875,-5.375 c 0.125,-0.484375 0.609375,-0.984375 0.875,-1.21875 C 4.78125,-6.765625 5.359375,-7.25 6.015625,-7.25 c 0.75,0 1.09375,0.765625 1.09375,1.65625 0,0.828125 -0.484375,2.765625 -0.90625,3.671875 -0.4375,0.921875 -1.234375,1.75 -2.015625,1.75 -1.171875,0 -1.359375,-1.484375 -1.359375,-1.546875 0,-0.0625 0.03125,-0.1875 0.046875,-0.28125 z m 0,0"
             id="path27" />
        </g>
      </g>
      <g
         fill="#000000"
         fill-opacity="1"
         id="g17"
         transform="matrix(1.33333,0,0,1.33333,-4.25,-2.34317)">
        <g
           id="use17"
           transform="translate(37.254002,15.801)">
          <path
             d="m 5.265625,4.203125 c 0,-0.015625 0,-0.046875 -0.046875,-0.109375 -0.796875,-0.8125 -2.90625,-3.015625 -2.90625,-8.375 0,-5.375 2.078125,-7.5625 2.921875,-8.421875 0,-0.01563 0.03125,-0.0625 0.03125,-0.109375 0,-0.04687 -0.046875,-0.07813 -0.125,-0.07813 -0.1875,0 -1.640625,1.265625 -2.484375,3.15625 -0.859375,1.921875 -1.109375,3.78125 -1.109375,5.421875 0,1.25 0.125,3.34375 1.15625,5.5625 0.828125,1.796875 2.234375,3.0625 2.4375,3.0625 0.09375,0 0.125,-0.046875 0.125,-0.109375 z m 0,0"
             id="path3" />
        </g>
      </g>
      <g
         fill="#000000"
         fill-opacity="1"
         id="g18"
         transform="matrix(1.33333,0,0,1.33333,-4.25,-2.34317)">
        <g
           id="use18"
           transform="translate(43.351002,15.801)">
          <path
             d="m 11.34375,-3.953125 c 0.296875,0 0.609375,0 0.609375,-0.359375 0,-0.34375 -0.3125,-0.34375 -0.609375,-0.34375 h -9.3125 c -0.296875,0 -0.609375,0 -0.609375,0.34375 0,0.359375 0.3125,0.359375 0.609375,0.359375 z m 0,0"
             id="path29" />
        </g>
      </g>
      <g
         fill="#000000"
         fill-opacity="1"
         id="g19"
         transform="matrix(1.33333,0,0,1.33333,-4.25,-2.34317)">
        <g
           id="use19"
           transform="translate(56.741001,15.801)">
          <path
             d="m 7.96875,-4.359375 c 0,-1.671875 -0.9375,-3.234375 -2.765625,-3.234375 -2.265625,0 -4.515625,2.46875 -4.515625,4.90625 0,1.5 0.9375,2.859375 2.6875,2.859375 1.0625,0 2.34375,-0.40625 3.5625,-1.453125 0.25,0.96875 0.78125,1.453125 1.515625,1.453125 0.9375,0 1.390625,-0.96875 1.390625,-1.1875 0,-0.15625 -0.109375,-0.15625 -0.171875,-0.15625 -0.125,0 -0.15625,0.046875 -0.203125,0.1875 -0.15625,0.4375 -0.546875,0.8125 -0.96875,0.8125 -0.53125,0 -0.53125,-1.109375 -0.53125,-2.15625 1.765625,-2.09375 2.171875,-4.265625 2.171875,-4.28125 0,-0.15625 -0.140625,-0.15625 -0.1875,-0.15625 -0.15625,0 -0.171875,0.046875 -0.234375,0.359375 -0.234375,0.765625 -0.671875,2.09375 -1.75,3.515625 z M 6.890625,-1.6875 c -1.515625,1.359375 -2.875,1.515625 -3.484375,1.515625 -1.21875,0 -1.5625,-1.078125 -1.5625,-1.890625 0,-0.75 0.375,-2.5 0.90625,-3.453125 C 3.46875,-6.71875 4.421875,-7.25 5.203125,-7.25 6.875,-7.25 6.875,-5.0625 6.875,-3.609375 c 0,0.421875 -0.015625,0.875 -0.015625,1.296875 0,0.34375 0.015625,0.4375 0.03125,0.625 z m 0,0"
             id="path30" />
        </g>
      </g>
      <g
         fill="#000000"
         fill-opacity="1"
         id="g20"
         transform="matrix(1.33333,0,0,1.33333,-4.25,-2.34317)">
        <g
           id="use20"
           transform="translate(67.566048,15.801)">
          <path
             d="M 2.703125,-1.28125 C 2.546875,-0.671875 2.515625,-0.5 1.3125,-0.5 c -0.328125,0 -0.5,0 -0.5,0.3125 C 0.8125,0 0.90625,0 1.25,0 h 5.46875 c 3.46875,0 6.859375,-3.59375 6.859375,-7.4375 0,-2.484375 -1.46875,-4.328125 -3.9375,-4.328125 h -5.53125 c -0.328125,0 -0.46875,0 -0.46875,0.328125 0,0.171875 0.140625,0.171875 0.40625,0.171875 1.046875,0 1.046875,0.140625 1.046875,0.328125 0,0.03125 0,0.140625 -0.0625,0.40625 z m 3.640625,-9.3125 c 0.140625,-0.640625 0.21875,-0.671875 0.890625,-0.671875 H 9.125 c 1.625,0 3.09375,0.875 3.09375,3.265625 0,0.859375 -0.34375,3.84375 -2.015625,5.75 C 9.734375,-1.6875 8.421875,-0.5 6.4375,-0.5 H 4.484375 c -0.25,0 -0.28125,0 -0.390625,-0.015625 -0.1875,-0.015625 -0.203125,-0.046875 -0.203125,-0.1875 0,-0.125 0.03125,-0.234375 0.0625,-0.375 z m 0,0"
             id="path31" />
        </g>
      </g>
      <g
         fill="#000000"
         fill-opacity="1"
         id="g22"
         transform="matrix(1.33333,0,0,1.33333,-4.25,-2.34317)">
        <g
           id="use21"
           transform="translate(81.568001,18.382999)">
          <path
             d="m 4.359375,-4.5625 1.96875,-1.890625 C 6.40625,-6.546875 6.984375,-7.09375 7.875,-7.109375 v -0.34375 c -0.28125,0.03125 -0.640625,0.03125 -0.921875,0.03125 -0.40625,0 -1.015625,0 -1.390625,-0.03125 v 0.34375 c 0.4375,0.015625 0.5,0.265625 0.5,0.359375 0,0.171875 -0.109375,0.28125 -0.1875,0.359375 L 2.453125,-3.125 v -3.46875 c 0,-0.390625 0.015625,-0.515625 0.859375,-0.515625 h 0.265625 v -0.34375 c -0.375,0.03125 -1.1875,0.03125 -1.609375,0.03125 -0.40625,0 -1.234375,0 -1.609375,-0.03125 v 0.34375 H 0.625 c 0.84375,0 0.859375,0.125 0.859375,0.515625 v 5.75 c 0,0.390625 -0.015625,0.5 -0.859375,0.5 H 0.359375 V 0 c 0.375,-0.03125 1.1875,-0.03125 1.609375,-0.03125 0.40625,0 1.234375,0 1.609375,0.03125 V -0.34375 H 3.3125 c -0.84375,0 -0.859375,-0.109375 -0.859375,-0.5 v -1.921875 l 1.265625,-1.1875 1.96875,2.921875 c 0.078125,0.09375 0.171875,0.234375 0.171875,0.359375 0,0.328125 -0.421875,0.328125 -0.640625,0.328125 V 0 C 5.59375,-0.03125 6.359375,-0.03125 6.765625,-0.03125 7.15625,-0.03125 7.5625,-0.015625 8.03125,0 V -0.34375 C 7.4375,-0.34375 7.203125,-0.375 6.875,-0.859375 Z m 0,0"
             id="path5" />
        </g>
        <g
           id="use22"
           transform="translate(90.053101,18.382999)">
          <path
             d="M 6.34375,-2.8125 H 6.078125 c -0.125,1.109375 -0.28125,2.46875 -2.203125,2.46875 H 2.984375 c -0.515625,0 -0.53125,-0.078125 -0.53125,-0.4375 v -5.8125 c 0,-0.359375 0,-0.515625 1.03125,-0.515625 H 3.84375 v -0.34375 c -0.390625,0.03125 -1.375,0.03125 -1.828125,0.03125 -0.421875,0 -1.28125,0 -1.65625,-0.03125 v 0.34375 H 0.625 c 0.84375,0 0.859375,0.125 0.859375,0.515625 v 5.75 c 0,0.390625 -0.015625,0.5 -0.859375,0.5 H 0.359375 V 0 h 5.6875 z m 0,0"
             id="path6" />
        </g>
      </g>
      <g
         fill="#000000"
         fill-opacity="1"
         id="g23"
         transform="matrix(1.33333,0,0,1.33333,-4.25,-2.34317)">
        <g
           id="use23"
           transform="translate(97.369003,15.801)">
          <path
             d="m 4.53125,-4.28125 c 0,-1.25 -0.125,-3.34375 -1.15625,-5.5625 -0.828125,-1.796875 -2.234375,-3.046875 -2.4375,-3.046875 -0.0625,0 -0.125,0.01563 -0.125,0.09375 0,0.03125 0.015625,0.0625 0.03125,0.09375 0.828125,0.859375 2.921875,3.046875 2.921875,8.390625 0,5.375 -2.078125,7.5625 -2.921875,8.421875 C 0.828125,4.15625 0.8125,4.171875 0.8125,4.203125 0.8125,4.28125 0.875,4.3125 0.9375,4.3125 1.125,4.3125 2.578125,3.03125 3.421875,1.140625 4.28125,-0.78125 4.53125,-2.640625 4.53125,-4.28125 Z m 0,0"
             id="path8" />
        </g>
      </g>
    </g>
    <g
       inkscape:label=""
       transform="translate(683.72735,492.80348)"
       id="g2">
      <g
         fill="#000000"
         fill-opacity="1"
         id="g4"
         transform="matrix(1.33333,0,0,1.33333,-3.74067,-2.65383)">
        <g
           id="use3"
           transform="translate(1.993,13.756)">
          <path
             d="M 2.703125,-1.28125 C 2.546875,-0.671875 2.515625,-0.5 1.3125,-0.5 c -0.328125,0 -0.5,0 -0.5,0.3125 C 0.8125,0 0.90625,0 1.25,0 h 5.46875 c 3.46875,0 6.859375,-3.59375 6.859375,-7.4375 0,-2.484375 -1.46875,-4.328125 -3.9375,-4.328125 h -5.53125 c -0.328125,0 -0.46875,0 -0.46875,0.328125 0,0.171875 0.140625,0.171875 0.40625,0.171875 1.046875,0 1.046875,0.140625 1.046875,0.328125 0,0.03125 0,0.140625 -0.0625,0.40625 z m 3.640625,-9.3125 c 0.140625,-0.640625 0.21875,-0.671875 0.890625,-0.671875 H 9.125 c 1.625,0 3.09375,0.875 3.09375,3.265625 0,0.859375 -0.34375,3.84375 -2.015625,5.75 C 9.734375,-1.6875 8.421875,-0.5 6.4375,-0.5 H 4.484375 c -0.25,0 -0.28125,0 -0.390625,-0.015625 -0.1875,-0.015625 -0.203125,-0.046875 -0.203125,-0.1875 0,-0.125 0.03125,-0.234375 0.0625,-0.375 z m 0,0"
             id="path5-3" />
        </g>
      </g>
      <g
         fill="#000000"
         fill-opacity="1"
         id="g5"
         transform="matrix(1.33333,0,0,1.33333,-3.74067,-2.65383)">
        <g
           id="use4"
           transform="translate(15.988,16.337999)">
          <path
             d="m 4.359375,-4.5625 1.96875,-1.890625 C 6.40625,-6.546875 6.984375,-7.09375 7.875,-7.109375 v -0.34375 c -0.28125,0.03125 -0.640625,0.03125 -0.921875,0.03125 -0.40625,0 -1.015625,0 -1.390625,-0.03125 v 0.34375 c 0.4375,0.015625 0.5,0.265625 0.5,0.359375 0,0.171875 -0.109375,0.28125 -0.1875,0.359375 L 2.453125,-3.125 v -3.46875 c 0,-0.390625 0.015625,-0.515625 0.859375,-0.515625 h 0.265625 v -0.34375 c -0.375,0.03125 -1.1875,0.03125 -1.609375,0.03125 -0.40625,0 -1.234375,0 -1.609375,-0.03125 v 0.34375 H 0.625 c 0.84375,0 0.859375,0.125 0.859375,0.515625 v 5.75 c 0,0.390625 -0.015625,0.5 -0.859375,0.5 H 0.359375 V 0 c 0.375,-0.03125 1.1875,-0.03125 1.609375,-0.03125 0.40625,0 1.234375,0 1.609375,0.03125 V -0.34375 H 3.3125 c -0.84375,0 -0.859375,-0.109375 -0.859375,-0.5 v -1.921875 l 1.265625,-1.1875 1.96875,2.921875 c 0.078125,0.09375 0.171875,0.234375 0.171875,0.359375 0,0.328125 -0.421875,0.328125 -0.640625,0.328125 V 0 C 5.59375,-0.03125 6.359375,-0.03125 6.765625,-0.03125 7.15625,-0.03125 7.5625,-0.015625 8.03125,0 V -0.34375 C 7.4375,-0.34375 7.203125,-0.375 6.875,-0.859375 Z m 0,0"
             id="path6-5" />
        </g>
        <g
           id="use5"
           transform="translate(24.473099,16.337999)">
          <path
             d="M 6.34375,-2.8125 H 6.078125 c -0.125,1.109375 -0.28125,2.46875 -2.203125,2.46875 H 2.984375 c -0.515625,0 -0.53125,-0.078125 -0.53125,-0.4375 v -5.8125 c 0,-0.359375 0,-0.515625 1.03125,-0.515625 H 3.84375 v -0.34375 c -0.390625,0.03125 -1.375,0.03125 -1.828125,0.03125 -0.421875,0 -1.28125,0 -1.65625,-0.03125 v 0.34375 H 0.625 c 0.84375,0 0.859375,0.125 0.859375,0.515625 v 5.75 c 0,0.390625 -0.015625,0.5 -0.859375,0.5 H 0.359375 V 0 h 5.6875 z m 0,0"
             id="path2-6" />
        </g>
      </g>
    </g>
  </g>
</svg>
