<?xml version="1.0" encoding="UTF-8" standalone="no"?>
<!-- Created with Inkscape (http://www.inkscape.org/) -->

<svg
   version="1.1"
   id="svg1"
   width="677.28375"
   height="427.59421"
   viewBox="0 0 677.28374 427.59419"
   sodipodi:docname="soft_constraints.svg"
   inkscape:version="1.3.2 (091e20ef0f, 2023-11-25, custom)"
   xmlns:inkscape="http://www.inkscape.org/namespaces/inkscape"
   xmlns:sodipodi="http://sodipodi.sourceforge.net/DTD/sodipodi-0.dtd"
   xmlns="http://www.w3.org/2000/svg"
   xmlns:svg="http://www.w3.org/2000/svg">
  <defs
     id="defs1">
    <rect
       x="573.29425"
       y="399.03946"
       width="83.188995"
       height="29.196173"
       id="rect38" />
    <marker
       style="overflow:visible"
       id="marker36"
       refX="0"
       refY="0"
       orient="auto-start-reverse"
       inkscape:stockid="Concave triangle arrow"
       markerWidth="2"
       markerHeight="2"
       viewBox="0 0 1 1"
       inkscape:isstock="true"
       inkscape:collect="always"
       preserveAspectRatio="xMidYMid"
       markerUnits="strokeWidth">
      <path
         transform="scale(0.7)"
         d="M -2,-4 9,0 -2,4 c 2,-2.33 2,-5.66 0,-8 z"
         style="fill:context-stroke;fill-rule:evenodd;stroke:none"
         id="path36" />
    </marker>
    <marker
       style="overflow:visible"
       id="ConcaveTriangle"
       refX="0"
       refY="0"
       orient="auto-start-reverse"
       inkscape:stockid="Concave triangle arrow"
       markerWidth="2"
       markerHeight="2"
       viewBox="0 0 1 1"
       inkscape:isstock="true"
       inkscape:collect="always"
       preserveAspectRatio="xMidYMid">
      <path
         transform="scale(0.7)"
         d="M -2,-4 9,0 -2,4 c 2,-2.33 2,-5.66 0,-8 z"
         style="fill:context-stroke;fill-rule:evenodd;stroke:none"
         id="path34" />
    </marker>
    <clipPath
       clipPathUnits="userSpaceOnUse"
       id="clipPath4">
      <path
         d="M -1021,-463 H 1794 V 1233 H -1021 Z"
         transform="translate(-3.4091009e-4,-2.5000006e-4)"
         id="path4" />
    </clipPath>
    <clipPath
       clipPathUnits="userSpaceOnUse"
       id="clipPath7">
      <path
         d="M -1021,-463 H 1794 V 1233 H -1021 Z"
         transform="translate(2.7273007e-4,-2.5000006e-4)"
         id="path7" />
    </clipPath>
    <clipPath
       clipPathUnits="userSpaceOnUse"
       id="clipPath24">
      <path
         d="m 72,65.04 h 446.4 v 297.6 H 72 Z"
         id="path24" />
    </clipPath>
    <clipPath
       clipPathUnits="userSpaceOnUse"
       id="clipPath26">
      <path
         d="m 72,65.04 h 446.4 v 297.6 H 72 Z"
         id="path26" />
    </clipPath>
    <clipPath
       clipPathUnits="userSpaceOnUse"
       id="clipPath28">
      <path
         d="m 72,65.04 h 446.4 v 297.6 H 72 Z"
         id="path28" />
    </clipPath>
    <clipPath
       clipPathUnits="userSpaceOnUse"
       id="clipPath21">
      <path
         d="M 111.64287,47.52 H 478.75713 V 380.16 H 111.64287 Z"
         id="path21" />
    </clipPath>
  </defs>
  <sodipodi:namedview
     id="namedview1"
     pagecolor="#ffffff"
     bordercolor="#000000"
     borderopacity="0.25"
     inkscape:showpageshadow="2"
     inkscape:pageopacity="0.0"
     inkscape:pagecheckerboard="0"
     inkscape:deskcolor="#d1d1d1"
     showgrid="false"
     inkscape:zoom="3.0788609"
     inkscape:cx="262.43472"
     inkscape:cy="53.753647"
     inkscape:window-width="1526"
     inkscape:window-height="833"
     inkscape:window-x="0"
     inkscape:window-y="0"
     inkscape:window-maximized="1"
     inkscape:current-layer="g1">
    <inkscape:page
       x="0"
       y="0"
       inkscape:label="1"
       id="page1"
       width="677.28375"
       height="427.59418"
       margin="0"
       bleed="0" />
  </sodipodi:namedview>
  <g
     id="g1"
     inkscape:groupmode="layer"
     inkscape:label="1"
     transform="translate(-96.01129,-80.976584)">
    <path
       style="fill:#d40000;stroke:#800080;stroke-width:0.933333;stroke-dasharray:none;marker-end:url(#ConcaveTriangle)"
       d="M 96.011294,471.37419 H 691.16196"
       id="path32" />
    <path
       style="fill:#d40000;stroke:#800080;stroke-width:0.933333;stroke-miterlimit:4;stroke-dasharray:none;marker-start:url(#marker36)"
       d="M 302.97039,92.736592 V 489.92528"
       id="path33" />
    <text
       xml:space="preserve"
       transform="translate(96,92.480011)"
       id="text38"
       style="white-space:pre;shape-inside:url(#rect38);fill:#800080;fill-opacity:1;stroke:none;stroke-width:0.377953;stroke-miterlimit:4;stroke-dasharray:none" />
    <text
       xml:space="preserve"
       style="fill:#800080;fill-opacity:1;stroke:none;stroke-width:0.377953;stroke-miterlimit:4;stroke-dasharray:none"
       x="670.93512"
       y="506.02682"
       id="text39"><tspan
         sodipodi:role="line"
         id="tspan39"
         x="670.93512"
         y="506.02682">$D_{\mathrm{KL}}$</tspan></text>
    <path
       id="path20"
       d="m 128.32988,365.04 5.01866,-13.33896 5.01865,-12.75058 5.01865,-12.18815 5.01865,-11.65052 5.01865,-11.13662 5.01865,-10.64537 5.01865,-10.1758 5.01865,-9.72695 5.01865,-9.29789 5.01865,-8.88775 5.01865,-8.49571 5.85509,-9.4392 5.85509,-8.95524 5.85509,-8.4961 5.85509,-8.0605 5.85509,-7.64724 5.8551,-7.25516 5.85509,-6.88318 5.85509,-6.53028 5.85509,-6.19547 5.85509,-5.87782 5.85509,-5.57647 5.8551,-5.29055 5.85509,-5.01931 6.69153,-5.42201 6.69154,-5.1055 6.69153,-4.80745 6.69153,-4.5268 6.69154,-4.26255 6.69153,-4.0137 6.69153,-3.7794 7.52798,-3.98876 7.52797,-3.72776 7.52798,-3.48386 7.52797,-3.25591 8.36442,-3.36843 8.36442,-3.12446 8.36441,-2.898144 9.20086,-2.946105 9.20086,-2.712246 10.0373,-2.713873 10.0373,-2.479734 10.87374,-2.445544 10.87374,-2.217817 11.71019,-2.15802 12.54662,-2.073483 12.54663,-1.852336 3.34576,-0.459679 v 0"
       style="fill:none;stroke:#0000ff;stroke-width:1.44301;stroke-linecap:square;stroke-linejoin:round;stroke-miterlimit:10;stroke-dasharray:none;stroke-opacity:1"
       transform="matrix(1.5976216,0,0,-1.2023932,-72.331747,545.70974)"
       clip-path="url(#clipPath21)" />
    <text
       xml:space="preserve"
       style="fill:#800080;fill-opacity:1;stroke:none;stroke-width:0.377953;stroke-miterlimit:4;stroke-dasharray:none"
       x="327.80426"
       y="104.70203"
       id="text1"><tspan
         sodipodi:role="line"
         id="tspan1"
         x="327.80426"
         y="104.70203">$\frac{1}{\alpha}exp(- \alpha D_{\mathrm{KL}})$</tspan></text>
  </g>
</svg>
